<?xml version="1.0" encoding="UTF-8"?> <svg xmlns="http://www.w3.org/2000/svg" width="1920" height="900" viewBox="0 0 1920 900" fill="none"><g clip-path="url(#clip0_210_63)"><rect width="1920" height="900" fill="#13171D"></rect><mask id="mask0_210_63" style="mask-type:alpha" maskUnits="userSpaceOnUse" x="0" y="0" width="1920" height="900"><path fill-rule="evenodd" clip-rule="evenodd" d="M1880 900C1902.09 900 1920 882.091 1920 860L1920 40.0001C1920 17.9087 1902.09 5.5545e-05 1880 5.59769e-05L40 9.1955e-05C17.9086 9.23869e-05 8.25682e-06 17.9087 9.96076e-06 40.0001L7.32087e-05 860C7.49126e-05 882.091 17.9087 900 40.0001 900L1880 900Z" fill="#FBFBFB"></path><path fill-rule="evenodd" clip-rule="evenodd" d="M1880 900C1902.09 900 1920 882.091 1920 860L1920 40.0001C1920 17.9087 1902.09 5.5545e-05 1880 5.59769e-05L40 9.1955e-05C17.9086 9.23869e-05 8.25682e-06 17.9087 9.96076e-06 40.0001L7.32087e-05 860C7.49126e-05 882.091 17.9087 900 40.0001 900L1880 900Z" fill="url(#paint0_linear_210_63)"></path></mask><g mask="url(#mask0_210_63)"><path fill-rule="evenodd" clip-rule="evenodd" d="M2704.36 474.975L2734.7 763.214L2371.09 847.735C2274.64 870.114 2178.95 861.181 2105.05 822.91C2031.16 784.642 1985.12 720.163 1977.08 643.666C1960.32 484.385 2109.53 317.5 2310.34 270.905C2406.79 248.527 2502.48 257.454 2576.38 295.725C2650.27 333.998 2696.31 398.477 2704.36 474.975Z" stroke="#48CFAD" stroke-miterlimit="10"></path><path opacity="0.98" fill-rule="evenodd" clip-rule="evenodd" d="M2702.72 478.009C2702.65 479.686 2731.43 763.095 2729.92 764.486C2726.8 767.379 2366.52 850.674 2363.58 848.636C2267.9 869.525 2173.62 859.307 2101.47 820.231C2029.32 781.155 1985.21 716.421 1978.84 640.273C1962.47 484.615 2113.95 316.282 2310.2 270.742C2404.46 248.872 2503.32 261.289 2575.54 298.69C2649.16 337.071 2694.91 401.574 2702.72 478.009Z" stroke="#48CFAD" stroke-miterlimit="10"></path><path opacity="0.95" fill-rule="evenodd" clip-rule="evenodd" d="M2699.99 480.855C2699.87 484.204 2727.07 762.786 2724.06 765.573C2717.8 771.363 2360.87 853.434 2354.97 849.352C2260.08 868.752 2167.2 857.251 2096.79 817.364C2026.39 777.483 1984.2 712.487 1979.52 636.691C1963.53 484.647 2117.28 314.873 2308.96 270.397C2401.03 249.036 2503.06 264.939 2573.6 301.465C2646.96 339.954 2692.43 404.485 2699.99 480.855Z" stroke="#48CFAD" stroke-miterlimit="10"></path><path opacity="0.93" fill-rule="evenodd" clip-rule="evenodd" d="M2696.27 483.494C2696.09 488.521 2721.72 762.273 2717.22 766.447C2707.83 775.131 2354.24 855.975 2345.39 849.855C2251.27 867.772 2159.81 854.974 2091.14 814.285C2022.46 773.596 1982.21 708.345 1979.22 632.896C1963.61 484.474 2119.62 313.251 2306.75 269.831C2396.63 248.979 2501.83 268.364 2570.68 304.027C2643.78 342.628 2688.96 407.187 2696.27 483.494Z" stroke="#48CFAD" stroke-miterlimit="10"></path><path opacity="0.91" fill-rule="evenodd" clip-rule="evenodd" d="M2691.57 485.94C2691.33 492.641 2715.4 761.569 2709.38 767.131C2696.86 778.709 2346.6 858.326 2334.81 850.168C2241.46 866.596 2151.42 852.511 2084.48 811.015C2017.55 769.524 1979.21 704.013 1977.91 628.91C1962.68 484.111 2120.97 311.439 2303.53 269.077C2391.21 248.737 2499.58 271.606 2566.76 306.402C2639.6 345.11 2684.51 409.692 2691.57 485.94Z" stroke="#48CFAD" stroke-miterlimit="10"></path><path opacity="0.89" fill-rule="evenodd" clip-rule="evenodd" d="M2685.97 488.14C2685.66 496.519 2708.16 760.616 2700.65 767.566C2685.01 782.043 2338.07 860.429 2323.33 850.235C2230.76 865.171 2142.13 849.804 2076.93 807.5C2011.74 765.198 1975.33 699.436 1975.7 624.682C1960.85 483.501 2121.41 309.385 2299.41 268.087C2384.89 248.25 2496.44 274.608 2561.94 308.532C2634.52 347.347 2679.13 411.961 2685.96 488.143L2685.97 488.14Z" stroke="#48CFAD" stroke-miterlimit="10"></path><path opacity="0.86" fill-rule="evenodd" clip-rule="evenodd" d="M2679.53 490.134C2679.16 500.187 2700.09 759.455 2691.07 767.799C2672.29 785.172 2328.7 862.334 2311 850.096C2219.21 863.548 2131.99 846.885 2068.54 803.775C2005.09 760.671 1970.6 694.649 1972.67 620.242C1958.21 482.68 2121.03 307.118 2294.47 266.876C2377.76 247.547 2492.47 277.397 2556.29 310.448C2628.61 349.378 2672.93 414.009 2679.52 490.132L2679.53 490.134Z" stroke="#48CFAD" stroke-miterlimit="10"></path><path opacity="0.84" fill-rule="evenodd" clip-rule="evenodd" d="M2672.28 491.888C2671.85 503.619 2691.21 758.057 2680.69 767.794C2658.79 788.061 2318.53 863.996 2297.89 849.721C2206.87 861.683 2121.06 843.734 2059.35 799.822C1997.64 755.91 1965.08 689.634 1968.83 615.573C1954.75 481.628 2119.85 304.623 2288.71 265.439C2369.82 246.62 2487.7 279.953 2549.84 312.137C2621.9 351.175 2665.94 415.834 2672.28 491.894L2672.28 491.888Z" stroke="#48CFAD" stroke-miterlimit="10"></path><path opacity="0.82" fill-rule="evenodd" clip-rule="evenodd" d="M2664.28 493.39C2663.8 506.795 2681.59 756.409 2669.57 767.531C2644.54 790.691 2307.62 865.4 2284.02 849.086C2193.78 859.56 2109.38 840.322 2049.41 795.605C1989.44 750.888 1958.81 684.349 1964.24 610.643C1950.54 480.321 2117.9 301.867 2282.22 263.744C2361.13 245.433 2482.18 282.253 2542.63 313.565C2614.43 352.71 2658.19 417.398 2664.29 493.396L2664.28 493.39Z" stroke="#48CFAD" stroke-miterlimit="10"></path><path opacity="0.8" fill-rule="evenodd" clip-rule="evenodd" d="M2655.62 494.643C2655.07 509.723 2671.29 754.509 2657.77 767.022C2629.61 793.076 2296.03 866.554 2269.47 848.206C2180 857.19 2097.02 836.667 2038.79 791.142C1980.56 745.617 1951.85 678.824 1958.97 605.465C1945.65 478.765 2115.29 298.862 2275.03 261.797C2351.75 243.999 2475.98 284.298 2534.75 314.743C2606.29 354.003 2649.76 418.716 2655.61 494.646L2655.62 494.643Z" stroke="#48CFAD" stroke-miterlimit="10"></path><path opacity="0.77" fill-rule="evenodd" clip-rule="evenodd" d="M2646.29 495.614C2645.68 512.371 2660.35 752.325 2645.32 766.234C2614.02 795.184 2283.78 867.433 2254.28 847.046C2165.59 854.547 2084.02 832.733 2027.53 786.4C1971.04 740.073 1944.25 673.019 1953.06 600.007C1940.12 476.925 2112.04 295.575 2267.21 259.569C2341.74 242.279 2469.13 286.065 2526.23 315.643C2597.5 355.01 2640.69 419.752 2646.3 495.619L2646.29 495.614Z" stroke="#48CFAD" stroke-miterlimit="10"></path><path opacity="0.75" fill-rule="evenodd" clip-rule="evenodd" d="M2636.41 496.328C2635.74 514.761 2648.83 749.887 2632.3 765.183C2597.88 797.028 2270.97 868.056 2238.52 845.625C2150.6 851.637 2070.45 828.531 2015.7 781.393C1960.96 734.254 1936.09 666.95 1946.59 594.284C1934.03 474.821 2108.22 292.025 2258.83 257.078C2331.16 240.297 2461.73 287.571 2517.14 316.272C2588.15 355.747 2631.05 420.512 2636.42 496.316L2636.41 496.328Z" stroke="#48CFAD" stroke-miterlimit="10"></path><path opacity="0.73" fill-rule="evenodd" clip-rule="evenodd" d="M2626 496.732C2625.27 516.839 2636.79 747.141 2618.75 763.826C2581.2 798.564 2257.63 868.365 2222.23 843.899C2135.08 848.422 2056.35 824.03 2003.34 776.084C1950.33 728.144 1927.39 660.58 1939.57 588.263C1927.39 472.423 2103.85 288.178 2249.89 254.295C2320.03 238.017 2453.76 288.784 2507.5 316.617C2578.24 356.206 2620.86 420.994 2625.98 496.739L2626 496.732Z" stroke="#48CFAD" stroke-miterlimit="10"></path><path opacity="0.7" fill-rule="evenodd" clip-rule="evenodd" d="M2615.11 496.874C2614.32 518.658 2624.27 744.13 2604.74 762.202C2564.06 799.839 2243.82 868.408 2205.47 841.904C2119.11 844.941 2041.78 819.261 1990.51 770.512C1939.23 721.764 1918.23 653.945 1932.09 581.975C1920.29 469.753 2099.02 284.064 2240.5 251.236C2308.46 235.467 2445.35 289.72 2497.42 316.684C2567.9 356.38 2610.24 421.197 2615.11 496.879L2615.11 496.874Z" stroke="#48CFAD" stroke-miterlimit="10"></path><path opacity="0.68" fill-rule="evenodd" clip-rule="evenodd" d="M2603.82 496.684C2602.97 520.143 2611.36 740.785 2590.32 760.254C2546.51 800.787 2229.61 868.127 2188.31 839.585C2102.72 841.132 2026.81 814.16 1977.27 764.61C1927.75 715.057 1908.66 646.975 1924.21 575.357C1912.79 466.758 2093.79 279.62 2230.71 247.85C2296.47 232.59 2436.54 290.326 2486.92 316.421C2557.13 356.225 2599.19 421.07 2603.82 496.684V496.684Z" stroke="#48CFAD" stroke-miterlimit="10"></path><path opacity="0.66" fill-rule="evenodd" clip-rule="evenodd" d="M2592.17 496.177C2591.26 521.31 2598.07 737.126 2575.53 757.985C2528.59 801.412 2215.03 867.53 2170.78 836.945C2085.96 837.002 2011.46 808.749 1963.67 758.387C1915.88 708.026 1898.72 639.69 1915.96 568.413C1904.92 463.433 2088.19 274.849 2220.55 244.14C2284.11 229.392 2427.35 290.611 2476.06 315.836C2546.01 355.746 2587.78 420.616 2592.17 496.177V496.177Z" stroke="#48CFAD" stroke-miterlimit="10"></path><path opacity="0.64" fill-rule="evenodd" clip-rule="evenodd" d="M2580.21 495.356C2579.23 522.167 2584.48 733.149 2560.44 755.399C2510.37 801.72 2200.14 866.612 2152.95 833.988C2068.9 832.556 1995.81 803.011 1949.77 751.845C1903.73 700.678 1888.48 632.085 1907.4 561.158C1896.74 459.795 2082.29 269.768 2210.08 240.117C2271.45 225.878 2417.86 290.586 2464.88 314.942C2534.58 354.965 2576.06 419.858 2580.21 495.356V495.356Z" stroke="#48CFAD" stroke-miterlimit="10"></path><path opacity="0.61" fill-rule="evenodd" clip-rule="evenodd" d="M2568 494.195C2566.97 522.68 2570.65 728.841 2545.1 752.473C2491.91 801.687 2185.02 865.353 2134.87 830.69C2051.6 827.776 1979.93 796.939 1935.62 744.965C1891.31 692.99 1878 624.143 1898.61 553.562C1888.33 455.822 2076.14 264.345 2199.37 235.75C2258.56 222.019 2408.13 290.214 2453.48 313.694C2522.91 353.825 2564.1 418.751 2568.01 494.177L2568 494.195Z" stroke="#48CFAD" stroke-miterlimit="10"></path><path opacity="0.59" fill-rule="evenodd" clip-rule="evenodd" d="M2555.58 492.703C2554.48 522.866 2556.6 724.194 2529.55 749.225C2473.22 801.336 2169.67 863.771 2116.57 827.071C2034.08 822.667 1963.82 790.545 1921.25 737.763C1878.68 684.986 1867.29 615.879 1889.59 545.644C1879.69 451.521 2069.78 258.601 2188.45 231.07C2245.44 217.848 2398.18 289.526 2441.85 312.143C2511.01 352.382 2551.92 417.336 2555.58 492.703V492.703Z" stroke="#48CFAD" stroke-miterlimit="10"></path><path opacity="0.57" fill-rule="evenodd" clip-rule="evenodd" d="M2543.04 490.847C2541.88 522.685 2542.43 719.186 2513.88 745.604C2454.43 800.609 2154.21 861.824 2098.16 823.08C2016.44 817.187 1947.6 783.773 1906.77 730.194C1865.94 676.607 1856.48 607.248 1880.45 537.363C1870.93 446.863 2063.29 252.494 2177.39 226.021C2232.19 213.302 2388.1 288.473 2430.09 310.219C2499 350.572 2539.62 415.543 2543.04 490.847V490.847Z" stroke="#48CFAD" stroke-miterlimit="10"></path><path opacity="0.55" fill-rule="evenodd" clip-rule="evenodd" d="M2530.39 488.632C2529.18 522.144 2528.16 713.815 2498.09 741.627C2435.51 799.525 2138.63 859.514 2079.63 818.734C1998.68 811.358 1931.25 776.653 1892.16 722.267C1853.07 667.877 1845.53 598.253 1871.2 528.72C1862.06 441.839 2056.69 246.024 2166.23 220.607C2218.83 208.4 2377.92 287.05 2418.22 307.927C2486.86 348.388 2527.21 413.387 2530.38 488.63L2530.39 488.632Z" stroke="#48CFAD" stroke-miterlimit="10"></path><path opacity="0.52" fill-rule="evenodd" clip-rule="evenodd" d="M2517.72 486.035C2516.44 521.225 2513.85 708.071 2482.3 737.271C2416.58 798.071 2123.04 856.824 2061.09 814.007C1980.92 805.141 1914.9 769.15 1877.55 713.956C1840.2 658.759 1834.58 588.881 1861.94 519.694C1853.18 436.43 2050.08 239.172 2155.05 214.819C2205.47 203.121 2367.72 285.263 2406.35 305.264C2474.73 345.833 2514.79 410.861 2517.72 486.044L2517.72 486.035Z" stroke="#48CFAD" stroke-miterlimit="10"></path><path opacity="0.5" fill-rule="evenodd" clip-rule="evenodd" d="M2505.07 483.073C2503.73 519.937 2499.57 701.954 2466.51 732.544C2397.67 796.238 2107.46 853.764 2042.56 808.909C1963.17 798.551 1898.56 761.275 1862.96 705.272C1827.35 649.27 1823.66 579.134 1852.7 510.294C1844.32 430.653 2043.49 231.946 2143.91 208.648C2192.13 197.458 2357.56 283.084 2394.5 302.222C2462.62 342.904 2502.39 407.955 2505.07 483.07L2505.07 483.073Z" stroke="#48CFAD" stroke-miterlimit="10"></path><path opacity="0.48" fill-rule="evenodd" clip-rule="evenodd" d="M2492.49 479.695C2491.09 518.233 2485.36 695.423 2450.8 727.404C2378.83 793.992 2091.95 850.297 2024.1 803.398C1945.49 791.557 1882.29 752.989 1848.43 696.179C1814.56 639.368 1812.79 568.979 1843.51 500.488C1835.52 424.47 2036.96 224.313 2132.81 202.074C2178.84 191.393 2347.43 280.505 2382.7 298.768C2450.55 339.558 2490.05 404.637 2492.49 479.689L2492.49 479.695Z" stroke="#48CFAD" stroke-miterlimit="10"></path><path opacity="0.45" fill-rule="evenodd" clip-rule="evenodd" d="M2480.04 475.934C2478.57 516.151 2471.29 688.507 2435.21 721.879C2360.12 791.36 2076.58 846.439 2005.78 797.501C1927.94 784.171 1866.16 744.312 1834.03 686.7C1801.9 629.087 1802.06 558.437 1834.47 490.293C1826.86 417.889 2030.56 216.292 2121.85 195.111C2165.69 184.939 2337.45 277.534 2371.03 294.934C2438.62 335.832 2477.83 400.937 2480.02 475.926L2480.04 475.934Z" stroke="#48CFAD" stroke-miterlimit="10"></path><path opacity="0.43" fill-rule="evenodd" clip-rule="evenodd" d="M2467.75 471.766C2466.23 513.657 2457.37 681.192 2419.8 715.951C2341.57 788.329 2061.37 842.178 1987.62 791.203C1910.56 776.383 1850.19 735.239 1819.8 676.824C1789.42 618.4 1791.5 547.499 1825.59 479.701C1818.36 410.92 2024.35 207.871 2111.07 187.754C2152.72 178.091 2327.64 274.172 2359.55 290.696C2426.88 331.702 2465.8 396.836 2467.76 471.763L2467.75 471.766Z" stroke="#48CFAD" stroke-miterlimit="10"></path><path opacity="0.41" fill-rule="evenodd" clip-rule="evenodd" d="M2455.71 467.165C2454.13 510.73 2443.7 673.436 2404.62 709.589C2323.26 784.86 2046.4 837.483 1969.7 784.469C1893.41 768.16 1834.46 725.73 1805.81 666.508C1777.16 607.282 1781.17 536.115 1816.95 468.672C1810.1 403.514 2018.35 199.016 2100.5 179.957C2139.96 170.806 2318.06 270.376 2348.29 286.028C2415.35 327.148 2453.99 392.304 2455.7 467.168L2455.71 467.165Z" stroke="#48CFAD" stroke-miterlimit="10"></path><path opacity="0.39" fill-rule="evenodd" clip-rule="evenodd" d="M2443.95 462.147C2442.31 507.39 2430.31 665.265 2389.74 702.806C2305.25 780.971 2031.73 832.369 1952.08 777.314C1876.56 759.522 1819.02 715.795 1792.12 655.767C1765.21 595.734 1771.14 524.313 1808.61 457.216C1802.13 395.675 2012.67 189.733 2090.25 171.73C2127.52 163.082 2308.79 266.141 2337.34 280.926C2404.14 322.154 2442.5 387.338 2443.96 462.138L2443.95 462.147Z" stroke="#48CFAD" stroke-miterlimit="10"></path><path opacity="0.36" fill-rule="evenodd" clip-rule="evenodd" d="M2432.54 456.681C2430.84 503.598 2417.28 656.644 2375.2 695.58C2287.59 776.639 2017.4 826.811 1934.79 769.721C1860.05 750.44 1803.92 705.43 1778.76 644.591C1753.59 583.753 1761.45 512.075 1800.6 445.325C1794.51 387.406 2007.31 180.015 2080.33 163.076C2115.41 154.937 2299.84 261.482 2326.71 275.395C2393.26 316.727 2431.32 381.938 2432.54 456.681V456.681Z" stroke="#48CFAD" stroke-miterlimit="10"></path><path opacity="0.34" fill-rule="evenodd" clip-rule="evenodd" d="M2421.52 450.771C2419.75 499.366 2404.62 647.582 2361.04 687.909C2270.29 771.87 2003.44 820.806 1917.89 761.678C1843.92 740.908 1789.21 694.613 1765.78 632.966C1742.36 571.32 1752.14 499.387 1792.98 432.984C1787.27 378.679 2002.34 169.848 2070.8 153.964C2103.68 146.334 2291.29 256.362 2316.49 269.408C2382.77 310.854 2420.55 376.088 2421.53 450.768L2421.52 450.771Z" stroke="#48CFAD" stroke-miterlimit="10"></path><path opacity="0.32" fill-rule="evenodd" clip-rule="evenodd" d="M2410.94 444.404C2409.11 494.674 2392.41 638.065 2347.33 679.777C2253.45 766.632 1989.93 814.342 1901.43 753.176C1828.24 730.922 1774.94 683.329 1753.25 620.881C1731.56 558.432 1743.27 486.24 1785.79 420.186C1780.47 369.504 1997.81 159.223 2061.7 144.398C2092.39 137.277 2283.17 250.792 2306.68 262.971C2372.7 304.525 2410.2 369.787 2410.93 444.402L2410.94 444.404Z" stroke="#48CFAD" stroke-miterlimit="10"></path><path opacity="0.3" fill-rule="evenodd" clip-rule="evenodd" d="M2400.87 437.572C2398.98 489.516 2380.71 628.08 2334.13 671.18C2237.13 760.928 1976.94 807.411 1885.49 744.207C1813.08 720.461 1761.19 671.586 1741.24 608.329C1721.29 545.07 1734.92 472.626 1779.13 406.918C1774.18 359.86 1993.8 148.13 2053.13 134.369C2081.62 127.759 2275.58 244.76 2297.41 256.061C2363.16 297.723 2400.38 363.014 2400.86 437.566L2400.87 437.572Z" stroke="#48CFAD" stroke-miterlimit="10"></path><path opacity="0.27" fill-rule="evenodd" clip-rule="evenodd" d="M2391.33 430.266C2389.38 483.888 2369.55 617.619 2321.46 662.118C2221.33 754.76 1964.48 800.022 1870.08 734.774C1798.45 709.539 1747.97 659.378 1729.77 595.316C1711.56 531.254 1727.11 458.545 1773.01 393.189C1768.44 349.748 1990.33 136.574 2045.1 123.869C2071.4 117.768 2268.52 238.255 2288.67 248.689C2354.16 290.465 2391.09 355.782 2391.34 430.263L2391.33 430.266Z" stroke="#48CFAD" stroke-miterlimit="10"></path><path opacity="0.25" fill-rule="evenodd" clip-rule="evenodd" d="M2382.42 422.466C2380.41 477.762 2359 606.666 2309.41 652.553C2206.15 748.091 1952.64 792.124 1855.29 724.838C1784.43 698.113 1735.37 646.661 1718.9 581.797C1702.43 516.928 1719.92 443.964 1767.5 378.958C1763.31 339.136 1987.46 124.517 2037.67 112.869C2061.78 107.278 2262.07 231.248 2280.54 240.818C2345.76 282.702 2382.41 348.042 2382.41 422.469L2382.42 422.466Z" stroke="#48CFAD" stroke-miterlimit="10"></path><path opacity="0.23" fill-rule="evenodd" clip-rule="evenodd" d="M2374.14 414.176C2372.07 471.146 2349.1 595.227 2298 642.498C2191.61 740.93 1941.44 783.736 1841.14 714.412C1771.06 686.204 1723.41 633.46 1708.68 567.789C1693.96 502.114 1713.36 428.893 1762.63 364.234C1758.82 328.034 1985.24 111.966 2030.89 101.374C2052.81 96.2852 2256.26 223.747 2273.06 232.443C2338.02 274.434 2374.38 339.802 2374.14 414.167L2374.14 414.176Z" stroke="#48CFAD" stroke-miterlimit="10"></path><path opacity="0.2" fill-rule="evenodd" clip-rule="evenodd" d="M2366.59 405.377C2364.46 464.025 2339.92 583.275 2287.32 631.943C2177.8 733.269 1930.96 774.848 1827.72 703.485C1758.4 673.789 1712.16 619.757 1699.18 553.28C1686.19 486.797 1707.52 413.322 1758.48 349.009C1755.05 316.427 1983.75 98.9149 2024.83 89.3869C2044.56 84.8071 2251.18 215.752 2266.29 223.584C2330.99 265.684 2367.07 331.08 2366.59 405.377V405.377Z" stroke="#48CFAD" stroke-miterlimit="10"></path><path opacity="0.18" fill-rule="evenodd" clip-rule="evenodd" d="M2359.79 396.078C2357.6 456.401 2331.49 570.822 2277.39 620.88C2164.75 725.099 1921.24 765.457 1815.04 692.054C1746.5 660.868 1701.68 605.551 1690.43 538.266C1679.18 470.981 1702.45 397.243 1755.08 333.279C1752.04 304.32 1983 85.359 2019.52 76.8895C2037.05 72.8216 2246.85 207.256 2260.28 214.212C2324.72 256.425 2360.51 321.845 2359.78 396.082L2359.79 396.078Z" stroke="#48CFAD" stroke-miterlimit="10"></path><path opacity="0.16" fill-rule="evenodd" clip-rule="evenodd" d="M2353.81 386.249C2351.55 448.25 2323.88 557.84 2268.27 609.289C2152.49 716.411 1912.33 755.534 1803.18 680.092C1735.41 647.423 1692.01 590.814 1682.5 522.718C1673 454.622 1698.18 380.633 1752.5 317.019C1749.83 291.683 1983.07 71.2723 2015.02 63.8581C2030.37 60.299 2243.34 198.216 2255.08 204.303C2319.26 246.625 2354.77 312.067 2353.8 386.247L2353.81 386.249Z" stroke="#48CFAD" stroke-miterlimit="10"></path><path opacity="0.14" fill-rule="evenodd" clip-rule="evenodd" d="M2348.7 375.891C2346.39 439.566 2317.15 544.332 2260.04 597.166C2141.13 707.181 1904.3 745.077 1792.2 667.598C1725.21 633.439 1683.22 575.539 1675.45 506.647C1667.69 437.749 1694.8 363.493 1750.8 300.232C1748.52 278.509 1984.03 56.6586 2011.41 50.3085C2024.57 47.2582 2240.7 188.662 2250.78 193.879C2314.69 236.308 2349.92 301.779 2348.7 375.891V375.891Z" stroke="#48CFAD" stroke-miterlimit="10"></path><path opacity="0.11" fill-rule="evenodd" clip-rule="evenodd" d="M2344.5 364.989C2342.13 430.339 2311.31 530.278 2252.71 584.505C2130.67 697.413 1897.17 734.083 1782.13 654.565C1715.91 618.918 1675.33 559.732 1669.31 490.032C1663.29 420.323 1692.32 345.816 1750.01 282.901C1748.11 264.801 1985.89 41.5016 2008.71 36.2067C2019.68 33.6652 2238.97 178.555 2247.37 182.906C2311.02 225.449 2345.96 290.945 2344.5 364.995L2344.5 364.989Z" stroke="#48CFAD" stroke-miterlimit="10"></path><path opacity="0.09" fill-rule="evenodd" clip-rule="evenodd" d="M2341.27 353.541C2338.83 420.569 2306.45 515.678 2246.34 571.295C2121.18 687.098 1891.01 722.547 1773.02 640.985C1707.59 603.851 1668.42 543.376 1664.13 472.869C1659.84 402.358 1690.8 327.591 1750.18 265.022C1748.66 250.54 1988.72 25.7931 2006.97 21.56C2015.74 19.5273 2238.21 167.901 2244.93 171.379C2308.31 214.03 2342.97 279.555 2341.27 353.536L2341.27 353.541Z" stroke="#48CFAD" stroke-miterlimit="10"></path><path opacity="0.07" fill-rule="evenodd" clip-rule="evenodd" d="M2339.06 341.538C2336.56 410.239 2302.61 500.518 2241 557.527C2112.7 676.226 1885.88 710.445 1764.94 626.845C1700.28 588.222 1662.52 526.459 1659.97 455.146C1657.43 383.827 1690.31 308.806 1751.37 246.587C1750.23 235.727 1992.56 9.53173 2006.25 6.35948C2012.83 4.8299 2238.47 156.695 2243.51 159.307C2306.63 202.062 2341 267.619 2339.06 341.538V341.538Z" stroke="#48CFAD" stroke-miterlimit="10"></path><path opacity="0.05" fill-rule="evenodd" clip-rule="evenodd" d="M2337.93 328.957C2335.38 399.333 2299.86 484.791 2236.75 543.187C2105.32 664.779 1881.83 697.772 1757.94 612.134C1694.06 572.021 1657.71 508.973 1656.91 436.849C1656.11 364.725 1690.92 289.447 1753.67 227.574C1752.91 220.334 1997.5 -7.30759 2006.63 -9.42134C2011.01 -10.4389 2239.83 144.912 2243.19 146.651C2306.05 189.52 2340.13 255.094 2337.94 328.959L2337.93 328.957Z" stroke="#48CFAD" stroke-miterlimit="10"></path><path opacity="0.02" fill-rule="evenodd" clip-rule="evenodd" d="M2337.93 315.808C2335.31 387.862 2298.23 468.487 2233.6 528.276C2099.05 652.762 1878.9 684.528 1752.06 596.852C1688.95 555.25 1654.01 490.911 1654.95 417.985C1655.89 345.058 1692.62 269.521 1757.06 207.994C1756.68 204.371 2003.55 -24.7139 2008.11 -25.7692C2010.3 -26.278 2242.28 132.559 2243.96 133.426C2306.56 176.403 2340.36 242.006 2337.92 315.802L2337.93 315.808Z" stroke="#48CFAD" stroke-miterlimit="10"></path><path fill-rule="evenodd" clip-rule="evenodd" d="M392.808 1419.44L184.561 582.476L-662.814 788.03C-887.54 842.666 -1081.11 983.325 -1200.95 1179.05C-1320.77 1374.75 -1357.03 1609.49 -1301.75 1831.61C-1186.64 2294.11 -714.039 2576.79 -246.13 2463.03C-21.4037 2408.39 172.162 2267.75 292.004 2072.03C411.827 1876.31 448.084 1641.57 392.808 1419.44Z" stroke="#48CFAD" stroke-miterlimit="10"></path><path opacity="0.98" fill-rule="evenodd" clip-rule="evenodd" d="M-1190.15 1187.15C-1307.21 1378.43 -1342.36 1613.14 -1288.3 1830.19C-1175.72 2282.15 -708.44 2558.12 -251.176 2446.88C-30.1517 2393.4 160.338 2255.29 278.358 2062.99C396.397 1870.67 432.295 1639.89 378.151 1421.42C378.013 1418.5 171.819 598.31 168.861 598.447C167.429 598.505 -661.975 800.117 -662.934 801.144C-883.504 855.611 -1073.14 994.459 -1190.15 1187.15V1187.15Z" stroke="#48CFAD" stroke-miterlimit="10"></path><path opacity="0.95" fill-rule="evenodd" clip-rule="evenodd" d="M-1181.16 1194.27C-1295.5 1381.09 -1329.58 1615.76 -1276.77 1827.78C-1166.8 2269.25 -704.905 2538.54 -258.281 2429.89C-40.9284 2377.57 146.496 2242.06 262.752 2053.15C379.007 1864.23 414.593 1637.41 361.644 1422.57C361.368 1416.73 157.395 613.297 151.479 613.57C148.634 613.706 -662.859 811.24 -664.777 813.33C-881.202 867.584 -1066.95 1004.62 -1181.16 1194.27V1194.27Z" stroke="#48CFAD" stroke-miterlimit="10"></path><path opacity="0.93" fill-rule="evenodd" clip-rule="evenodd" d="M-1173.78 1200.62C-1285.4 1383.01 -1318.4 1617.64 -1266.85 1824.6C-1159.49 2255.54 -702.985 2518.18 -266.983 2412.13C-53.321 2360.99 131.037 2228.05 245.548 2042.56C360.059 1857.04 395.295 1634.2 343.559 1423C343.145 1414.21 141.394 627.562 132.519 627.953C128.243 628.148 -665.321 821.64 -668.198 824.756C-880.478 878.815 -1062.33 1014.02 -1173.74 1200.62L-1173.78 1200.62Z" stroke="#48CFAD" stroke-miterlimit="10"></path><path opacity="0.91" fill-rule="evenodd" clip-rule="evenodd" d="M-1167.89 1206.4C-1276.78 1384.32 -1308.72 1618.93 -1258.43 1820.85C-1153.7 2241.28 -702.558 2497.24 -277.197 2393.78C-67.2256 2343.82 114.086 2213.46 226.813 2031.36C339.56 1849.25 374.484 1630.36 323.925 1422.81C323.372 1411.1 123.861 641.188 112.01 641.734C106.32 641.987 -669.333 831.438 -673.168 835.6C-881.284 889.464 -1059.25 1022.83 -1167.89 1206.4V1206.4Z" stroke="#48CFAD" stroke-miterlimit="10"></path><path opacity="0.89" fill-rule="evenodd" clip-rule="evenodd" d="M-1163.43 1211.59C-1269.6 1385.07 -1300.45 1619.62 -1251.42 1816.5C-1149.32 2226.42 -703.557 2475.71 -288.818 2374.84C-82.5182 2326.06 95.7084 2198.26 206.691 2019.59C317.674 1840.9 352.267 1625.95 302.902 1422.06C302.212 1407.42 104.921 654.264 90.1125 654.946C82.9907 655.278 -674.733 840.65 -679.527 845.856C-883.498 899.507 -1057.57 1031.06 -1163.41 1211.58L-1163.43 1211.59Z" stroke="#48CFAD" stroke-miterlimit="10"></path><path opacity="0.86" fill-rule="evenodd" clip-rule="evenodd" d="M-1160.25 1216.32C-1263.7 1385.35 -1293.48 1619.88 -1245.71 1811.71C-1146.2 2211.12 -705.828 2453.75 -301.729 2355.45C-99.1199 2307.86 76.0595 2182.64 185.259 2007.37C294.478 1832.09 328.759 1621.12 280.589 1420.85C279.761 1403.29 84.6915 666.89 66.9246 667.709C58.3897 668.099 -681.423 849.43 -687.176 855.682C-887.002 909.137 -1057.16 1038.88 -1160.23 1216.34L-1160.25 1216.32Z" stroke="#48CFAD" stroke-miterlimit="10"></path><path opacity="0.84" fill-rule="evenodd" clip-rule="evenodd" d="M-1158.27 1220.66C-1259 1385.25 -1287.73 1619.72 -1241.21 1806.51C-1144.33 2195.42 -709.335 2431.37 -315.876 2335.67C-116.958 2289.25 55.174 2166.61 162.61 1994.74C270.064 1822.87 304.034 1615.84 257.04 1419.22C256.073 1398.74 63.2251 679.1 42.5002 680.036C32.5334 680.485 -689.35 857.775 -696.08 865.053C-891.761 918.295 -1058.02 1046.22 -1158.29 1220.64L-1158.27 1220.66Z" stroke="#48CFAD" stroke-miterlimit="10"></path><path opacity="0.82" fill-rule="evenodd" clip-rule="evenodd" d="M-1157.42 1224.71C-1255.42 1384.84 -1283.08 1619.29 -1237.81 1801.02C-1143.55 2179.41 -713.924 2408.71 -331.106 2315.59C-135.86 2270.34 33.1874 2150.29 138.878 1981.83C244.569 1813.36 278.207 1610.32 232.427 1417.33C231.322 1393.9 40.714 691.037 17.0122 692.11C5.63233 692.637 -698.34 865.848 -706.029 874.17C-897.566 927.218 -1059.93 1053.31 -1157.42 1224.71V1224.71Z" stroke="#48CFAD" stroke-miterlimit="10"></path><path opacity="0.8" fill-rule="evenodd" clip-rule="evenodd" d="M-1157.57 1228.58C-1252.85 1384.27 -1279.43 1618.69 -1235.42 1795.36C-1143.78 2163.24 -719.54 2385.88 -347.344 2295.34C-155.789 2251.27 10.2116 2133.79 114.119 1968.73C218.046 1803.67 251.373 1604.57 206.768 1415.23C205.525 1388.88 17.1383 702.759 -9.52146 703.987C-22.3332 704.572 -708.376 873.742 -717.024 883.109C-904.415 935.962 -1062.88 1060.22 -1157.57 1228.58V1228.58Z" stroke="#48CFAD" stroke-miterlimit="10"></path><path opacity="0.77" fill-rule="evenodd" clip-rule="evenodd" d="M-1158.66 1232.29C-1251.21 1383.53 -1276.72 1617.9 -1233.98 1789.53C-1144.97 2146.91 -726.092 2362.88 -364.537 2274.93C-176.672 2232.04 -13.7371 2117.12 88.4255 1955.49C190.588 1793.84 223.584 1598.7 180.174 1413C178.812 1383.73 -7.37254 714.361 -36.9903 715.726C-51.2151 716.37 -719.347 881.498 -728.954 891.892C-912.182 944.532 -1066.77 1066.97 -1158.68 1232.29L-1158.66 1232.29Z" stroke="#48CFAD" stroke-miterlimit="10"></path><path opacity="0.75" fill-rule="evenodd" clip-rule="evenodd" d="M-1160.55 1235.96C-1250.39 1382.76 -1274.82 1617.09 -1233.34 1783.68C-1146.93 2130.54 -733.453 2339.85 -382.519 2254.48C-198.326 2212.77 -38.4575 2100.43 61.9411 1942.19C162.34 1783.95 195.024 1592.77 152.808 1410.71C151.308 1378.51 -32.6551 725.902 -65.2309 727.385C-80.8876 728.106 -731.09 889.175 -741.655 900.614C-920.738 953.058 -1071.43 1073.69 -1160.53 1235.94L-1160.55 1235.96Z" stroke="#48CFAD" stroke-miterlimit="10"></path><path opacity="0.73" fill-rule="evenodd" clip-rule="evenodd" d="M-1163.19 1239.71C-1250.3 1382.06 -1273.68 1616.35 -1233.43 1777.89C-1149.64 2114.24 -741.533 2316.89 -401.24 2234.11C-220.738 2193.58 -63.9159 2083.82 34.6998 1928.99C133.334 1774.16 165.688 1586.93 124.667 1408.54C123.029 1373.41 -58.6944 737.563 -94.2471 739.182C-111.317 739.963 -743.627 896.971 -755.132 909.455C-930.07 961.705 -1076.85 1080.5 -1163.19 1239.71V1239.71Z" stroke="#48CFAD" stroke-miterlimit="10"></path><path opacity="0.7" fill-rule="evenodd" clip-rule="evenodd" d="M-1166.44 1243.58C-1250.83 1381.48 -1273.13 1615.73 -1234.15 1772.23C-1152.99 2098.08 -750.266 2294.05 -420.595 2213.86C-243.783 2174.5 -90.0273 2067.33 6.84332 1915.91C103.714 1764.48 135.755 1581.24 95.9295 1406.47C94.1532 1368.41 -85.3491 749.332 -123.86 751.088C-142.361 751.927 -756.742 904.894 -769.206 918.423C-939.999 970.459 -1082.88 1087.44 -1166.42 1243.61L-1166.44 1243.58Z" stroke="#48CFAD" stroke-miterlimit="10"></path><path opacity="0.68" fill-rule="evenodd" clip-rule="evenodd" d="M-1170.21 1247.65C-1251.88 1381.1 -1273.11 1615.33 -1235.38 1766.77C-1156.84 2082.09 -759.484 2271.39 -440.472 2193.8C-267.333 2155.61 -116.643 2051.02 -21.536 1903C73.5705 1754.98 105.3 1575.68 66.6501 1404.56C64.7358 1363.58 -112.545 761.241 -154.014 763.133C-173.929 764.049 -770.399 912.957 -783.822 927.512C-950.47 979.353 -1089.45 1094.5 -1170.21 1247.63L-1170.21 1247.65Z" stroke="#48CFAD" stroke-miterlimit="10"></path><path opacity="0.66" fill-rule="evenodd" clip-rule="evenodd" d="M-1174.43 1252.03C-1253.37 1381.02 -1273.53 1615.22 -1237.06 1761.61C-1161.12 2066.41 -769.169 2249.06 -460.779 2174.05C-291.33 2137.05 -143.687 2035.02 -50.363 1890.43C42.9795 1745.82 74.3779 1570.49 36.923 1403C34.8707 1359.09 -140.189 773.512 -184.616 775.541C-205.963 776.516 -784.503 921.363 -798.885 936.982C-961.388 988.61 -1096.48 1101.94 -1174.45 1252.05L-1174.43 1252.03Z" stroke="#48CFAD" stroke-miterlimit="10"></path><path opacity="0.64" fill-rule="evenodd" clip-rule="evenodd" d="M-1178.97 1256.8C-1255.19 1381.35 -1274.27 1615.5 -1239.07 1756.85C-1165.76 2051.16 -779.168 2227.13 -481.419 2154.7C-315.661 2118.87 -171.084 2019.42 -79.5053 1878.22C12.0732 1737.02 43.1597 1565.64 6.89959 1401.8C4.70914 1354.97 -168.111 786.146 -215.514 788.312C-238.274 789.346 -798.903 930.152 -814.244 946.797C-972.602 998.23 -1103.79 1109.73 -1178.97 1256.8V1256.8Z" stroke="#48CFAD" stroke-miterlimit="10"></path><path opacity="0.61" fill-rule="evenodd" clip-rule="evenodd" d="M-1183.78 1262.04C-1257.27 1382.13 -1275.28 1616.25 -1241.34 1752.55C-1170.65 2036.34 -789.441 2205.65 -502.313 2135.81C-340.227 2101.17 -198.715 2004.29 -108.901 1866.5C-19.0864 1728.72 11.6692 1561.29 -23.3961 1401.1C-25.7246 1351.32 -196.324 799.274 -246.685 801.576C-270.877 802.688 -813.577 939.434 -829.876 957.105C-984.07 1008.34 -1111.38 1118.03 -1183.78 1262.04V1262.04Z" stroke="#48CFAD" stroke-miterlimit="10"></path></g></g><defs><linearGradient id="paint0_linear_210_63" x1="1920" y1="-0.0624812" x2="1672.85" y2="931.506" gradientUnits="userSpaceOnUse"><stop></stop><stop offset="1"></stop></linearGradient><clipPath id="clip0_210_63"><rect width="1920" height="900" fill="white"></rect></clipPath></defs></svg> 